<svg width="71" height="81" viewBox="0 0 71 81" fill="none" xmlns="http://www.w3.org/2000/svg">
<path d="M64.9868 17.8281C66.1825 18.5185 66.1825 19.6378 64.9868 20.3281L61.2597 22.48C60.064 23.1702 58.1252 23.1703 56.9296 22.48L36.9213 10.9282C36.2039 10.514 35.0407 10.514 34.3233 10.9282L33.5038 11.4014C32.7911 11.8129 32.7856 12.4793 33.4919 12.8945L53.2955 24.5371C54.4815 25.2344 54.4626 26.3553 53.2532 27.0391L49.3815 29.2275C48.1792 29.9072 46.2521 29.8993 45.0665 29.21L25.0253 17.5571C24.3353 17.1559 23.2214 17.1381 22.4932 17.5161L21.5189 18.022C20.7367 18.4282 20.7038 19.1297 21.4471 19.5596L41.824 31.3398C43.0182 32.0305 43.0169 33.1495 41.8215 33.8394L37.6715 36.2334C36.4799 36.9208 34.5504 36.9234 33.3532 36.2393L5.24629 20.1758C4.04019 19.4865 4.03527 18.3623 5.2353 17.6694L32.8086 1.75C34.0043 1.05965 35.943 1.05964 37.1387 1.75L64.9868 17.8281Z" fill="white" stroke="white"/>
<path d="M48.1094 34.9678C49.1116 34.3892 49.9827 34.6805 50.2153 35.6719L52.2264 44.2432C52.549 45.616 54.4802 44.4677 54.7619 42.7354L56.4864 32.1245C56.6945 30.8438 57.5794 29.5005 58.6058 28.9077L67.5739 23.73C68.7695 23.0398 69.7389 23.5994 69.7389 24.98L69.7389 59.5298C69.7387 60.9103 68.7693 62.5894 67.5739 63.2798L62.9739 65.9355C61.7785 66.6256 60.8091 66.0658 60.8089 64.6855L60.8089 61.2207C60.8085 59.4535 58.6237 60.403 58.2506 62.3325L57.2847 67.3286C57.043 68.5799 56.1774 69.8595 55.1848 70.4326L51.6124 72.4951C50.6476 73.052 49.7989 72.8042 49.5319 71.8877L47.8946 66.2637C47.4783 64.8342 45.3473 66.4117 45.3473 68.1494L45.3473 73.6123C45.3471 74.9929 44.3778 76.672 43.1822 77.3623L39.587 79.438C38.3914 80.1283 37.4222 79.5684 37.422 78.188L37.422 43.6382C37.422 42.2575 38.3913 40.5785 39.587 39.8882L48.1094 34.9678Z" fill="white" stroke="white"/>
<path d="M22.1962 34.9722C21.1941 34.3936 20.3229 34.6849 20.0904 35.6763L18.0792 44.2476C17.7567 45.6204 15.8255 44.4721 15.5437 42.7397L13.8193 32.1289C13.6112 30.8482 12.7263 29.5049 11.6999 28.9121L2.7318 23.7344C1.53619 23.0442 0.566741 23.6038 0.566741 24.9844L0.56674 59.5342C0.566955 60.9147 1.53632 62.5938 2.7318 63.2842L7.33172 65.9399C8.52721 66.63 9.49657 66.0702 9.49678 64.6899L9.49678 61.2251C9.49713 59.4579 11.682 60.4074 12.0551 62.3369L13.0209 67.333C13.2627 68.5842 14.1283 69.8639 15.1209 70.437L18.6932 72.4995C19.6581 73.0564 20.5067 72.8086 20.7737 71.8921L22.411 66.2681C22.8273 64.8386 24.9584 66.4161 24.9584 68.1538L24.9584 73.6167C24.9586 74.9973 25.9279 76.6764 27.1234 77.3667L30.7186 79.4424C31.9142 80.1327 32.8835 79.5728 32.8837 78.1924L32.8837 43.6426C32.8837 42.2619 31.9144 40.5829 30.7186 39.8926L22.1962 34.9722Z" fill="white" stroke="white"/>
</svg>
